<svg xmlns="http://www.w3.org/2000/svg" xmlns:xlink="http://www.w3.org/1999/xlink" viewBox="0 0 706.93 706.99"><defs><style>.cls-1{opacity:0.5;}.cls-2,.cls-3,.cls-4,.cls-5,.cls-6,.cls-7,.cls-8,.cls-9{fill:none;stroke-miterlimit:10;}.cls-2{stroke:url(#Безымянный_градиент_49);}.cls-3{stroke:url(#Безымянный_градиент_49-2);}.cls-4{stroke:url(#Безымянный_градиент_49-3);}.cls-5{stroke:url(#Безымянный_градиент_49-4);}.cls-6{stroke:url(#Безымянный_градиент_49-5);}.cls-7{stroke:url(#Безымянный_градиент_49-6);}.cls-8{stroke:url(#Безымянный_градиент_49-7);}.cls-9{stroke:url(#Безымянный_градиент_49-8);}</style><linearGradient id="Безымянный_градиент_49" x1="706.93" y1="353.5" x2="0" y2="353.5" gradientUnits="userSpaceOnUse"><stop offset="0" stop-color="#fff" stop-opacity="0"/><stop offset="1" stop-color="#fff"/></linearGradient><linearGradient id="Безымянный_градиент_49-2" x1="689.95" y1="653.51" x2="616.94" y2="653.51" xlink:href="#Безымянный_градиент_49"/><linearGradient id="Безымянный_градиент_49-3" x1="89.9" y1="47.46" x2="16.9" y2="47.46" xlink:href="#Безымянный_градиент_49"/><linearGradient id="Безымянный_градиент_49-4" x1="161.91" y1="605.5" x2="16.9" y2="605.5" xlink:href="#Безымянный_градиент_49"/><linearGradient id="Безымянный_градиент_49-5" x1="448.94" y1="399.87" x2="335.73" y2="399.87" xlink:href="#Безымянный_градиент_49"/><linearGradient id="Безымянный_градиент_49-6" x1="497.66" y1="442.83" x2="299.45" y2="442.83" xlink:href="#Безымянный_градиент_49"/><linearGradient id="Безымянный_градиент_49-7" x1="77.9" y1="671.51" x2="4.9" y2="671.51" xlink:href="#Безымянный_градиент_49"/><linearGradient id="Безымянный_градиент_49-8" x1="659.11" y1="328.02" x2="98.63" y2="328.02" xlink:href="#Безымянный_градиент_49"/></defs><title>Подложка монета</title><g id="Слой_2" data-name="Слой 2"><g id="Слой_1-2" data-name="Слой 1"><g id="Подложка_монета" data-name="Подложка монета" class="cls-1"><path class="cls-2" d="M4.34,387.35A358.46,358.46,0,0,0,27,468.84a12.8,12.8,0,0,0,.6,1.38,385.85,385.85,0,0,0,84,125.12c8.6,8.59,17.5,16.64,26.62,24.25v0l.06,0a387,387,0,0,0,51,36,11.53,11.53,0,0,0,3.29,1.88A374.17,374.17,0,0,0,249,684.16a12,12,0,0,0,1.47.57,352.54,352.54,0,0,0,84.45,19.85,12.9,12.9,0,0,0,1.6.31c.16,0,.31-.08.47-.09,11.06,1.11,22.12,1.69,33.1,1.69a314.1,314.1,0,0,0,54.29-4.76l.13,0c.25,0,.49-.13.74-.14,1-.18,2.07-.41,3.1-.6.24-.09.49-.08.73-.17,54.27-10.43,104.67-35.49,145-75.81a269.82,269.82,0,0,0,24-27.69A269.37,269.37,0,0,0,625,574.12c119.31-119.31,106-326.78-29.69-462.47S252.11-37.36,132.8,82A269.72,269.72,0,0,0,109,109.3a268.76,268.76,0,0,0-27.12,23.56c-45.83,45.83-72,104.67-79.29,167.45A11,11,0,0,0,2.3,303,328.11,328.11,0,0,0,4,385.12,10.08,10.08,0,0,0,4.34,387.35Zm24.69,2,30.43-30.44c.89,4.05,1.8,8.09,2.85,12.12.5,2,1.09,3.93,1.63,5.88q2.15,7.71,4.62,15.38c.62,1.92,1.22,3.84,1.88,5.74,1.5,4.36,3.11,8.7,4.78,13L43.08,443.2A331.5,331.5,0,0,1,29,389.36Zm23.64,78.21,32.69-32.7c.59,1.24,1.2,2.48,1.8,3.71q1,2.15,2.08,4.29c3.33,6.68,6.84,13.33,10.6,19.88.29.49.62,1,.9,1.49.75,1.3,1.54,2.57,2.31,3.85L69.78,501.36A352.33,352.33,0,0,1,52.67,467.57Zm30.12,54.72,33.47-33.47q5.65,8.25,11.77,16.27c.24.31.5.6.72.9q4.59,6,9.44,11.82l-33.74,33.74C96.64,542.05,89.46,532.27,82.79,522.29ZM25.22,359.22a299.06,299.06,0,0,1,.6-51.52l25.52-25.51c0,1.39.07,2.79.07,4.19,0,3.31.06,6.62.17,9.94s.19,6.57.39,9.87q.53,8.61,1.5,17.23c.27,2.23.57,4.45.87,6.69Zm40.1-165.4q-2,6.33-3.71,12.74C61,209,60.27,211.47,59.67,214q-2,8.31-3.5,16.78c-.55,3.09-1,6.21-1.45,9.33-.28,1.88-.6,3.75-.84,5.64L33.36,266.23a256,256,0,0,1,33.19-76.61C66.1,191,65.77,192.43,65.32,193.82ZM608,557.14a249.66,249.66,0,0,1-21.09,18.79l-4.13,3.12-.95.71a250.46,250.46,0,0,1-21.73,14.65c-.14.09-.28.16-.42.24A246.71,246.71,0,0,1,537,606.7c-.27.14-.56.24-.84.38q-11.25,5.19-22.94,9.28l-1.46.51c-7,2.41-14.19,4.43-21.4,6.25-1.5.37-3,.8-4.48,1.15-6.73,1.57-13.57,2.81-20.44,3.88-2.18.35-4.35.71-6.55,1-6.55.86-13.15,1.45-19.79,1.86-2.49.15-5,.3-7.5.38q-9.87.35-19.81.05c-2.47-.07-5-.21-7.44-.34-6.82-.37-13.64-.92-20.46-1.75-2.13-.26-4.26-.6-6.39-.9-7.24-1-14.48-2.23-21.71-3.77-1.43-.31-2.85-.68-4.28-1-7.41-1.68-14.8-3.59-22.16-5.79-.72-.23-1.45-.4-2.18-.63-8.05-2.48-16.05-5.34-24-8.45-1-.38-2-.72-2.93-1.11-7.81-3.15-15.54-6.64-23.2-10.38-1-.52-2.1-1-3.14-1.54q-11.4-5.73-22.5-12.35c-1-.61-2.07-1.23-3.09-1.86q-11.09-6.76-21.84-14.4c-.92-.65-1.83-1.33-2.75-2-7.22-5.26-14.34-10.78-21.27-16.65-.65-.54-1.28-1.11-1.91-1.67-7.19-6.17-14.25-12.6-21.06-19.41s-13.2-13.82-19.35-21c-.59-.69-1.2-1.35-1.78-2-5.82-6.89-11.3-14-16.53-21.15-.71-1-1.43-1.93-2.13-2.9q-7.57-10.64-14.27-21.65c-.67-1.1-1.34-2.21-2-3.32q-6.51-11-12.19-22.23c-.59-1.16-1.14-2.34-1.72-3.52-3.68-7.52-7.1-15.12-10.2-22.8-.47-1.14-.88-2.29-1.32-3.44-3-7.67-5.75-15.39-8.16-23.16-.32-1.06-.61-2.13-.92-3.18C86.76,370,85,363,83.33,355.9c-.37-1.65-.82-3.29-1.16-4.95-1.5-7-2.67-14.07-3.68-21.13-.32-2.33-.69-4.66-1-7-.8-6.66-1.34-13.32-1.71-19.95-.15-2.66-.28-5.3-.36-7.95q-.3-9.71,0-19.34c.1-2.68.24-5.34.41-8,.4-6.49,1-12.94,1.81-19.35.3-2.36.7-4.67,1.06-7,1.06-6.73,2.26-13.43,3.81-20,.38-1.65.85-3.25,1.26-4.89,1.77-7,3.74-14,6.08-20.82.23-.67.47-1.33.7-2q4-11.48,9.13-22.54c.15-.35.3-.72.47-1.07a249.22,249.22,0,0,1,12-22.59l.28-.51a252.17,252.17,0,0,1,14.64-21.7l.71-.94L131,120a246.53,246.53,0,0,1,18.8-21.09c50-50,117-74.5,187-74.5,84.08,0,172.59,35.28,241.5,104.19C704.63,255,718,447.19,608,557.14Zm-443.14,52.8,33.71-33.71.16.12c1.5,1.18,3,2.38,4.49,3.52,6.21,4.7,12.5,9.24,18.91,13.52.48.33,1,.62,1.45.93,1.58,1,3.18,2,4.78,3L194.8,630.92A361.52,361.52,0,0,1,164.85,609.94Zm51.56,33.31,33.16-33.16c4.43,2.45,8.9,4.76,13.39,7,1.31.66,2.6,1.35,3.92,2q8.39,4.1,16.87,7.72l-32.44,32.44A354.67,354.67,0,0,1,216.41,643.25Zm60,24.84,31.83-31.84c2,.7,4.07,1.37,6.1,2,5.06,1.64,10.15,3.15,15.24,4.57,1.92.54,3.84,1.14,5.77,1.64,6.39,1.66,12.78,3.1,19.19,4.38,2.52.51,5,.94,7.58,1.4L332.41,680A328.51,328.51,0,0,1,276.43,668.09Zm240.85-27.72A252.6,252.6,0,0,1,465.21,666l16.39-16.41q10.14-2,20.07-4.69c2.29-.62,4.56-1.31,6.84-2C511.43,642,514.39,641.33,517.28,640.37ZM364.1,682.26l28-28c1.3.11,2.61.2,3.92.3,5.62.42,11.2.7,16.79.84,2.71.07,5.44.22,8.14.22.42,0,.84-.06,1.26-.06,6.79,0,13.53-.32,20.27-.77L419,678.24A291.41,291.41,0,0,1,364.1,682.26ZM128.54,578.37c-2.87-2.86-5.41-5.89-8.16-8.82l33.8-33.81c2.75,2.91,5.46,5.83,8.31,8.68,5.63,5.62,11.4,11,17.26,16.15l.27.27-33.84,33.84C140.2,589.42,134.26,584.09,128.54,578.37Z"/><path class="cls-3" d="M617.44,677.51a12,12,0,0,0,12,12,60.08,60.08,0,0,0,60-60,12,12,0,1,0-24,0,36.06,36.06,0,0,1-36,36A12,12,0,0,0,617.44,677.51Z"/><path class="cls-4" d="M89.4,17.46a12,12,0,0,0-12-12c-33.08,0-60,32.29-60,72a12,12,0,0,0,24,0c0-26.47,16.15-48,36-48A12,12,0,0,0,89.4,17.46Z"/><path class="cls-5" d="M149.41,677.51a12,12,0,0,0,0-24,108.14,108.14,0,0,1-108-108,12,12,0,0,0-24,0A132.15,132.15,0,0,0,149.41,677.51Z"/><path class="cls-6" d="M447,390.18a7,7,0,0,0-11.19-8.45,63.17,63.17,0,0,1-88.38,12.32A7,7,0,0,0,339,405.24,77.21,77.21,0,0,0,447,390.18Z"/><path class="cls-7" d="M494.67,425.8A12.32,12.32,0,1,0,475,411,111,111,0,0,1,319.7,432.61a12.32,12.32,0,1,0-14.85,19.66C364.49,497.31,449.63,485.44,494.67,425.8Z"/><path class="cls-8" d="M5.4,653.51c0,26.47,26.92,48,60,48a12,12,0,0,0,0-24c-19.51,0-36-11-36-24a12,12,0,0,0-24,0Z"/><path class="cls-9" d="M657.73,348.08c-5.83-74.25-40.07-146.17-96.42-202.51C499.5,83.75,417.68,48.29,336.84,48.29c-66.11,0-126.54,24-170.11,67.58C117.81,164.77,94.12,233,100,308c5.85,74.26,40.09,146.17,96.42,202.51a347.35,347.35,0,0,0,48.12,40.09l-.39.31L258.9,560l.18.11c5.64,3.48,11.38,6.75,17.18,9.87,1.63.87,3.27,1.71,4.92,2.57q6.46,3.33,13,6.37c1.8.84,3.6,1.7,5.41,2.51,5.59,2.47,11.23,4.8,16.92,6.93,1.85.7,3.72,1.3,5.58,2,4.09,1.45,8.21,2.83,12.35,4.1,2.41.73,4.81,1.44,7.22,2.13,4.13,1.16,8.26,2.2,12.41,3.19,1.94.47,3.86,1,5.8,1.4q8.7,1.88,17.46,3.21c2,.31,4,.54,5.93.8q6.66.9,13.34,1.48c1.92.17,3.84.33,5.78.47,6.17.4,12.35.68,18.51.68,66.13,0,126.54-24,170.12-67.59C639.93,491.27,663.62,423,657.73,348.08ZM598.12,493.55s-21.67,27.25-24.07,29.65c-39,39-93.44,60.56-153.15,60.53-5.22,0-10.45-.2-15.68-.52-1.78-.11-3.55-.29-5.33-.44-3.44-.27-6.89-.6-10.33-1q-3.19-.39-6.37-.86c-3.12-.44-6.24-1-9.35-1.54-2.2-.4-4.4-.79-6.59-1.24-3.31-.69-6.6-1.48-9.89-2.28-1.88-.46-3.78-.87-5.66-1.37q-7.41-2-14.74-4.38c-1.75-.57-3.49-1.23-5.25-1.84-3.43-1.2-6.85-2.41-10.24-3.74-1.87-.72-3.71-1.49-5.56-2.26-3.42-1.42-6.83-2.89-10.23-4.44-1.59-.73-3.2-1.46-4.8-2.23q-6.21-3-12.33-6.25c-.62-.33-1.23-.63-1.84-1l-22.09-13.27a320.63,320.63,0,0,1-51.21-41.58C161.12,441.22,129.34,374.67,124,306.1c-5.34-67.85,15.88-129.36,59.76-173.24,39-39,93.44-60.54,153.14-60.54,74.53,0,150.16,32.89,207.51,90.24,52.29,52.29,84.06,118.85,89.45,187.41C638,403.74,625.33,453.39,598.12,493.55Z"/></g></g></g></svg>