<svg xmlns="http://www.w3.org/2000/svg" viewBox="0 0 250.2 89.2"><defs><style>.cls-1{fill:#fff;}</style></defs><title>Логотип</title><g id="Слой_2" data-name="Слой 2"><g id="Слой_1-2" data-name="Слой 1"><g id="Логотип"><path class="cls-1" d="M234.63,35.36a6.14,6.14,0,0,0,5.06-10.45,7.43,7.43,0,0,0-4.77-2.05,12.1,12.1,0,0,0-5.42.72,34.77,34.77,0,0,0-14.43,9.76,1.74,1.74,0,0,1-2.18.53,5.4,5.4,0,0,1,.18-.57q3.65-8.65,7.3-17.3a1.47,1.47,0,0,1,.55-.71,39.82,39.82,0,0,1,7.16-3.1A21.81,21.81,0,0,1,240.3,12a13,13,0,0,1,9.77,11.39,13.06,13.06,0,0,1-3.58,10.9,15.5,15.5,0,0,1-9.68,5l-3.06.4a29.67,29.67,0,0,1-2.35,7.09c4.37,5.81,5.32,12,2.66,18.84h-2a1.92,1.92,0,0,1-.37-.08,17.9,17.9,0,0,0-1.09-16.41l-.19,0c-.09.22-.19.44-.27.67a24.21,24.21,0,0,1-12.47,13.93,16.74,16.74,0,0,1-6.52,1.68,49.22,49.22,0,0,1-6.07.15,15.11,15.11,0,0,1-13.67-11.78,14.43,14.43,0,0,1,3.79-13.27,15.2,15.2,0,0,1,9.1-4.64,26.88,26.88,0,0,1,14.52,2,30.73,30.73,0,0,1,8.36,5c.26.23.52.44.79.65l.22.11a12.39,12.39,0,0,0,1.42-4.73,12,12,0,0,1-4.33-4.18l4.68.84c.05,0,.11-.06.13-.1a15.12,15.12,0,0,0,.82-3.93c.07-1.38-.24-1.81-1.55-2.23a7.47,7.47,0,0,1,9.23-3.41c-.14.17-.25.34-.39.49a11.17,11.17,0,0,0-2.67,5C235.24,32.64,235,34,234.63,35.36Zm-7.27,9.87c-.39-.36-.69-.66-1-.91A19.91,19.91,0,0,0,219.57,41a27.16,27.16,0,0,0-6.49-.75,15.66,15.66,0,0,0-3.69.2,7.55,7.55,0,0,0-5.6,9.34,7,7,0,0,0,5.92,5.52,15.83,15.83,0,0,0,5.82-.15C221.27,54.08,224.85,50.35,227.36,45.23Z"/><path class="cls-1" d="M42.89,16.27l-7.11,20.2-1.41-.21c.25-.92.53-1.79.71-2.68A10,10,0,0,0,35.27,30a6.93,6.93,0,0,0-13.46-.89c-.06.19-.08.39-.15.71h.92a13.63,13.63,0,0,1,4.35.66,7.06,7.06,0,0,1,2.46,1.39,5.62,5.62,0,0,1,1,7.06,5.18,5.18,0,0,1-4.29,2.43,8.64,8.64,0,0,1-5.37-1.52A16.71,16.71,0,0,1,17,36.31l-.86-1.08a7.3,7.3,0,0,0-.9.32,8.94,8.94,0,0,0-4.69,11.33A7.57,7.57,0,0,0,14.18,51a14.92,14.92,0,0,0,6.06,1.86,20.9,20.9,0,0,0,13.4-3.52A29.75,29.75,0,0,0,44.15,37.6l.38-.74.68.23c.19.07.38.16.67.29L35.49,65.46l-.8-.09-.82-.07.76-3.5a19.88,19.88,0,0,1-4.5,2.12,29.52,29.52,0,0,1-7,1.44c-1.34.11-2.67.29-4,.34A18.49,18.49,0,0,1,5.52,61,16.14,16.14,0,0,1,0,48.53a17.91,17.91,0,0,1,4.39-12,17.85,17.85,0,0,1,8.79-5.3l1.43-.38a3.75,3.75,0,0,0,0-.67c-.89-6.23,1.29-11.28,6-15.31A15.22,15.22,0,0,1,28,11.55a16.25,16.25,0,0,1,14.12,4ZM21.74,33a5.93,5.93,0,0,0,.71,3,3.62,3.62,0,0,0,3.95,1.78,2,2,0,0,0,1.06-3.38,4.87,4.87,0,0,0-1.08-.78A7.44,7.44,0,0,0,21.74,33Z"/><path class="cls-1" d="M101.7,39.14l.58.36a13,13,0,0,1,6.7,9.55A13.29,13.29,0,0,1,97.75,64.44a18.38,18.38,0,0,1-8.36-1.06l-1-.34-.66,2.46-1.48.08C88.11,58.89,90,52.3,91.9,45.64l1.52.22c-.08.53-.16,1-.22,1.46a8.46,8.46,0,0,0,.08,3.21,2.9,2.9,0,0,0,2.92,2.39,5.79,5.79,0,0,0,6.27-5.1,5.58,5.58,0,0,0-2.14-5.6,6,6,0,0,0-6.25-.75l-.5.23s0,0-.17,0l1.37-4.19,1.41.29c3.85.69,7.35-2.64,7.75-5.71a6.91,6.91,0,0,0-6-8,16.66,16.66,0,0,0-9.39,1.35,25.74,25.74,0,0,0-7.11,4.62,20.46,20.46,0,0,0-2.11,2.35c-1,1.23-1.89,2.53-2.84,3.79-.61.82-.69.85-1.82.56.08-.24.16-.49.25-.73q3.57-9.66,7.13-19.32a1.33,1.33,0,0,1,.71-.87,52.18,52.18,0,0,1,9.9-3.62,25,25,0,0,1,8.78-.55,10.39,10.39,0,0,1,2.81.73c4.67,2,7.78,5.4,8.78,10.42a13.2,13.2,0,0,1-3.5,12A13.54,13.54,0,0,1,102.06,39,2.34,2.34,0,0,0,101.7,39.14Z"/><path class="cls-1" d="M149.63,36.55h-1.32c.09-.27.14-.49.22-.7q3.79-9.83,7.58-19.65a1.73,1.73,0,0,1,.84-1A32.31,32.31,0,0,1,165,11.9a13.89,13.89,0,0,1,7.1.07,7.65,7.65,0,0,1,5.66,7.42,23.12,23.12,0,0,1-.85,6.08q-2.43,9.53-4.87,19a8.22,8.22,0,0,0-.12,3.59A2.85,2.85,0,0,0,176,50.42a6.48,6.48,0,0,0,1.73-1.07,8.31,8.31,0,0,0,2-2.59c.75-1.42,1.48-2.84,2.22-4.27l.22-.38,1.32.12c-.1.35-.17.62-.26.89q-3.52,10.38-7.06,20.76c-.34,1-.07.94-1.37,1h-.65l.78-2.82-.1-.08-.5.6a5.84,5.84,0,0,1-3.3,2.17,5.72,5.72,0,0,1-7-6.33,55.86,55.86,0,0,1,1.28-6.09q2.73-11.64,5.5-23.26a3.33,3.33,0,0,0-1.22-3.59,8.14,8.14,0,0,0-4.7-1.83A10.25,10.25,0,0,0,157,26.56a28,28,0,0,0-7.15,9.63C149.77,36.31,149.7,36.42,149.63,36.55Z"/><path class="cls-1" d="M82.59,48.26,82,47.48a10.51,10.51,0,0,0-10.71-3.61,7.16,7.16,0,0,0-3.5,1.89,6,6,0,0,0,.42,8.87A6.36,6.36,0,0,0,72.88,56a17.26,17.26,0,0,0,6.39-1.87A8.5,8.5,0,0,0,81.6,52.3a20.76,20.76,0,0,0,3.83-6.4A64.14,64.14,0,0,0,88.8,36a16.9,16.9,0,0,0,.37-2.65c.09-1.36-.21-1.68-1.49-1.87a8.58,8.58,0,0,1,10.81-4c-.13.14-.24.27-.36.38-3.39,2.93-3.66,3.26-5,7.53-1,3.31-1.91,6.67-2.89,10a52.37,52.37,0,0,1-2.82,7.78l-.49,1C84,60,79.12,63.31,72.82,64.71a24,24,0,0,1-6.28.5,13.47,13.47,0,0,1-4.88-1.16,15.27,15.27,0,0,1-5.3-3.91,10.72,10.72,0,0,1-2.75-7,15.79,15.79,0,0,1,.82-5.67,11.36,11.36,0,0,1,4.63-5.93,14.07,14.07,0,0,1,7.1-2.36,26.31,26.31,0,0,1,6.92.34,12.89,12.89,0,0,1,9.38,7.81,6.08,6.08,0,0,1,.21.6c0,.09,0,.2,0,.3Z"/><path class="cls-1" d="M148.56,49.6c-.47-.42-.84-.75-1.22-1.07a16.52,16.52,0,0,0-5.78-3.31,6.65,6.65,0,0,0-4.71.15,6,6,0,0,0-3.17,7.91,5.8,5.8,0,0,0,5.48,3.82,13.08,13.08,0,0,0,13-8.51A86.45,86.45,0,0,0,155,38.1c.07-.33.12-.67.16-1A1.14,1.14,0,0,0,154,35.64l-.61-.07a9.87,9.87,0,0,1,11.1-7.87,2.29,2.29,0,0,1-.24.22,13.36,13.36,0,0,0-5.09,7.58c-.67,2.43-1.18,4.91-1.78,7.36a90.92,90.92,0,0,1-2.53,9.28,24.71,24.71,0,0,1-4.31,7.75A14.72,14.72,0,0,1,141.68,65a30.38,30.38,0,0,1-8.56.46A13.32,13.32,0,0,1,123,59.76a11.35,11.35,0,0,1-1.59-4.26A12.28,12.28,0,0,1,129,41.69a15.74,15.74,0,0,1,10.13-.8,14.88,14.88,0,0,1,7.31,4.61A9,9,0,0,1,148.56,49.6Z"/><path class="cls-1" d="M140.62,86.94h-2.47l-3.07-7.14h-.18c0,.19-.1.37-.11.55q-.16,3.58-.34,7.17c0,.41,0,.83-.09,1.29H131c.25-5,.49-9.92,1.18-14.93,1.08,0,2.09,0,3.11,0,.19,0,.43.35.54.59.9,1.9,1.78,3.81,2.66,5.72.22.48.41,1,.62,1.45.09.21.21.4.4.74l.45-1c1.05-2.3,2.1-4.59,3.13-6.9a1,1,0,0,1,1.15-.7c.78,0,1.56,0,2.4,0,.69,5,.93,9.9,1.18,14.9h-3.38c-.18-3-.2-6-.58-9C142.63,82.13,141.72,84.55,140.62,86.94Z"/><path class="cls-1" d="M237.13,88.58V74.09a16.36,16.36,0,0,1,2.07-.29c1.42,0,2.84-.06,4.26,0a6.23,6.23,0,0,1,3,.85,3.69,3.69,0,0,1,1.31,5,12.68,12.68,0,0,1-.92,1.09,1.07,1.07,0,0,0,.26.2c2.41.92,2.69,5.51-.1,7.1a7.24,7.24,0,0,1-3.15.94,24,24,0,0,1-6.44-.29Zm3.52-6.15a10.87,10.87,0,0,0,0,3.61,4.12,4.12,0,0,0,.52.06c.68,0,1.37,0,2.05,0a5.27,5.27,0,0,0,1.28-.34,1.37,1.37,0,0,0,.82-.9,1.65,1.65,0,0,0-1.3-2.26A11.31,11.31,0,0,0,240.65,82.43Zm-.09-5.78V79.6a11.08,11.08,0,0,0,2.7,0,2.53,2.53,0,0,0,.76-.21,1.29,1.29,0,0,0,.83-1.3,1.19,1.19,0,0,0-.87-1.26A7.14,7.14,0,0,0,240.56,76.65Z"/><path class="cls-1" d="M219.49,81.33a8.58,8.58,0,0,1,1.08-4.25,6.9,6.9,0,0,1,5.34-3.49,8.26,8.26,0,0,1,3.43.24,6.63,6.63,0,0,1,4.76,4.73,9.45,9.45,0,0,1-.1,5.9A6.53,6.53,0,0,1,228.57,89a8.63,8.63,0,0,1-3.75-.15,6.72,6.72,0,0,1-5.08-5.45C219.59,82.75,219.57,82,219.49,81.33Zm11.37.28a6.6,6.6,0,0,0-.53-2.91,3.44,3.44,0,0,0-3.19-2.07,3.34,3.34,0,0,0-3.31,1.85,6.12,6.12,0,0,0,0,5.69,3.33,3.33,0,0,0,3.21,1.9,3.47,3.47,0,0,0,3.27-1.95A5.72,5.72,0,0,0,230.86,81.61Z"/><path class="cls-1" d="M101.29,74V88.8H97.92c0-.33-.07-.66-.07-1V77.94c0-.33,0-.67-.07-1H92.51c-.08,1,0,2,0,3s0,1.95,0,2.92v5.9a11.78,11.78,0,0,1-3.39.07c-.18-.62-.19-14.08,0-14.79C89.64,73.85,100.22,73.8,101.29,74Z"/><path class="cls-1" d="M183.43,83c-.13,1.93,0,3.87-.11,5.84H180l0,0-.05-.06a1,1,0,0,1,0-.23q0-7,0-14.06c0-.13,0-.26,0-.38A9.75,9.75,0,0,1,183.3,74a6.77,6.77,0,0,1,.08.8c0,1.13,0,2.27,0,3.4,0,.27,0,.54.07,1,.32-.31.51-.48.68-.67,1.24-1.36,2.49-2.72,3.7-4.1a1.36,1.36,0,0,1,1.16-.52c.92,0,1.84,0,2.76,0,.18,0,.35,0,.67.06-2,2.43-4.05,4.6-6.21,6.82a34.75,34.75,0,0,1,6.55,8,3.94,3.94,0,0,1-.58.08c-1,0-1.94,0-2.92,0a1,1,0,0,1-1-.51,27.65,27.65,0,0,0-3.78-4.65c-.29-.29-.62-.55-.93-.82Z"/><path class="cls-1" d="M149.18,88.81a4,4,0,0,1,.11-.54c1.64-4.61,3.33-9.19,5.41-13.62a4,4,0,0,0,.17-.36.64.64,0,0,1,.68-.42c.73,0,1.47,0,2.21,0a.83.83,0,0,1,.89.58c.85,2,1.76,3.94,2.55,5.94,1,2.54,1.93,5.11,2.88,7.67.08.22.14.45.24.78l-1.83,0h-1.86c-.38-1.06-.75-2.09-1.12-3.14h-5.69l-1.08,3.08Zm9.42-6.07c-.58-1.7-1.16-3.3-1.86-4.91a19.94,19.94,0,0,0-1.89,4.91Z"/><path class="cls-1" d="M115,85.91v2.83c-.6.15-9.37.2-10.49.07-.17-.56-.21-13.9,0-14.79a93,93,0,0,1,10,0v2.86H108v2.71c1.92.11,3.8,0,5.77.08a11,11,0,0,1,0,2.87H108c-.08,1.14,0,2.2,0,3.36,1.21.11,2.36,0,3.5,0S113.77,85.91,115,85.91Z"/><path class="cls-1" d="M15.78,88.81V74A84,84,0,0,1,25.88,74a22.79,22.79,0,0,1,0,2.87H19.23c0,.85,0,1.61,0,2.36a.38.38,0,0,0,.42.38h4.58l.89,0V82.5H19.26a20.09,20.09,0,0,0,0,3.38c1.22.06,2.4,0,3.57,0s2.3,0,3.51,0v2.82C25.78,88.9,17.46,89,15.78,88.81Z"/><path class="cls-1" d="M204.69,74a15.49,15.49,0,0,1,0,2.89h-6.62a15.21,15.21,0,0,0,0,2.33.37.37,0,0,0,.4.39h5.49v2.9c-2,.06-3.86,0-5.82,0,0,.25-.08.45-.09.65,0,.69,0,1.37,0,2.06s.07.65.7.67c.19,0,.37,0,.55,0h5.93a23.52,23.52,0,0,1,0,2.91H194.63a4.63,4.63,0,0,1-.1-.65V74.59a4.69,4.69,0,0,1,.06-.54A79.57,79.57,0,0,1,204.69,74Z"/><path class="cls-1" d="M166.19,88.85c-.18-.67-.2-13.94,0-14.78a16.53,16.53,0,0,1,1.89-.27c1.39,0,2.79-.06,4.18,0a7.34,7.34,0,0,1,2.67.63,4.15,4.15,0,0,1,2.66,4,8.08,8.08,0,0,1-.23,2,3.67,3.67,0,0,1-1.87,2.43,7.61,7.61,0,0,1-3.15.93c-.73.07-1.47.09-2.2.13-.15,0-.3,0-.53.09v4.83C168.39,88.87,167.28,88.87,166.19,88.85Zm3.39-8a7.12,7.12,0,0,0,3.08-.22,1.64,1.64,0,0,0,1.27-1.84,1.61,1.61,0,0,0-1.3-1.81,16.81,16.81,0,0,0-2.57-.22.4.4,0,0,0-.48.41Z"/><path class="cls-1" d="M122,83.93v4.89h-3.45c-.15-1.61,0-3.23-.07-4.84s0-3.26,0-4.89V74.2a4.49,4.49,0,0,1,2-.4c1.39-.07,2.78-.06,4.17,0a7.08,7.08,0,0,1,3,.81,3.87,3.87,0,0,1,2.21,3.23,10,10,0,0,1,0,1.73,4.1,4.1,0,0,1-2.77,3.68,12.63,12.63,0,0,1-4.17.7Zm0-3.09a7.31,7.31,0,0,0,3.24-.31A1.62,1.62,0,0,0,126.36,79a1.74,1.74,0,0,0-.78-1.84,5.34,5.34,0,0,0-3.53-.36Z"/><path class="cls-1" d="M41.9,73.94h3.46v4.77c.38,0,.69.07,1,.07a10.85,10.85,0,0,1,3.36.38,17.68,17.68,0,0,1,2.12,1,2.07,2.07,0,0,1,.42.37c1.58,1.47,2,5.66-.81,7.36A7.83,7.83,0,0,1,47.94,89a18.91,18.91,0,0,1-5.41-.31c-.2,0-.4-.13-.63-.2Zm3.53,12a5,5,0,0,0,2.15,0,5.21,5.21,0,0,0,1.47-.5,1.85,1.85,0,0,0,0-3.07,5.9,5.9,0,0,0-3.66-.6Z"/><path class="cls-1" d="M81.13,81.19c.11-.29.24-.57.33-.87.61-1.9,1.21-3.81,1.81-5.71.23-.72.23-.73,1-.73h2.93c-.07.31-.1.53-.17.74A108,108,0,0,1,82.82,85a11.93,11.93,0,0,1-1.27,2.08,5.26,5.26,0,0,1-5.15,2.08c-.72-.09-1.43-.3-2.21-.47l.63-2.82c.68.11,1.27.25,1.87.3a2.42,2.42,0,0,0,2.25-.87c.4-.51.42-.56.08-1.11a85.32,85.32,0,0,1-4.72-8.92c-.15-.33-.3-.67-.44-1a.71.71,0,0,1,0-.22A13.49,13.49,0,0,1,77.55,74q1.68,3.63,3.35,7.27Z"/><path class="cls-1" d="M72.08,85.21,73,88a10,10,0,0,1-.93.46,11.26,11.26,0,0,1-6.29.5,6.07,6.07,0,0,1-4.91-4.48,9.8,9.8,0,0,1,0-6.06A6.85,6.85,0,0,1,67,73.58a10,10,0,0,1,4.5.51,13.53,13.53,0,0,1,1.29.57l-1,2.83c-.25-.09-.44-.13-.62-.21a7.88,7.88,0,0,0-3-.62,3.68,3.68,0,0,0-4,3.28,8.61,8.61,0,0,0,0,2.82,3.64,3.64,0,0,0,3.88,3.29,8,8,0,0,0,3.16-.54Z"/><path class="cls-1" d="M12.79,85.22,13.73,88a5.07,5.07,0,0,1-2,.85A11.29,11.29,0,0,1,6.56,89a6.05,6.05,0,0,1-4.91-4.39,9.77,9.77,0,0,1,.23-6.8,6.82,6.82,0,0,1,5.77-4.2,10,10,0,0,1,4.58.49c.42.14.81.36,1.32.59l-1,2.85-.74-.3a7.45,7.45,0,0,0-3.55-.53A3.7,3.7,0,0,0,5,79.77,7.4,7.4,0,0,0,5,83a3.69,3.69,0,0,0,3.85,3.07A8,8,0,0,0,12,85.51Z"/><path class="cls-1" d="M214.18,88.83h-3.44c-.07-2,0-4,0-5.92s0-3.93,0-6c-1.49-.18-2.9,0-4.41-.12a18.33,18.33,0,0,1,0-2.77c.62-.21,11.39-.26,12.37-.07v2.87H214.3c0,.39-.06.69-.06,1,0,3.34,0,6.69,0,10C214.23,88.17,214.2,88.48,214.18,88.83Z"/><path class="cls-1" d="M35.41,88.8c-.26,0-.41.06-.56.06-1,0-1.89,0-3,0,0-2,0-4,0-5.93v-6c-1.48-.19-2.92,0-4.4-.13V73.93c1-.11,2,0,3-.05s2.05,0,3.08,0h6.2v3H35.48c0,.39-.06.69-.06,1q0,5,0,10Z"/><path class="cls-1" d="M26,9.13a4.52,4.52,0,0,1-4.55-4.56A4.57,4.57,0,1,1,26,9.13Z"/><path class="cls-1" d="M38.35,9.13A4.57,4.57,0,1,1,42.9,4.58,4.5,4.5,0,0,1,38.35,9.13Z"/><path class="cls-1" d="M166.14,38.82l-1.6,6.31a10.37,10.37,0,0,0-4.26,1.37,9.51,9.51,0,0,0-3,3.26C156.9,45.5,161.27,40.09,166.14,38.82Z"/></g></g></g></svg>