<svg xmlns="http://www.w3.org/2000/svg" viewBox="0 0 799.13 617.32"><defs><style>.cls-1{opacity:0.4;}.cls-2{fill:none;stroke:#fff;stroke-miterlimit:10;}</style></defs><title>смайл</title><g id="Слой_2" data-name="Слой 2"><g id="Слой_1-2" data-name="Слой 1"><g id="смайл" class="cls-1"><path class="cls-2" d="M335.13,537.64l-.39-.4a13.46,13.46,0,0,1,19-19.08l.4.4a13.46,13.46,0,0,1-19,19.08Z"/><path class="cls-2" d="M575.67,295.35a35.34,35.34,0,0,1,70.68,0,13.46,13.46,0,1,1-26.91,0,8.43,8.43,0,0,0-16.86,0,13.46,13.46,0,1,1-26.91,0Z"/><path class="cls-2" d="M400.21,295.35a35.35,35.35,0,0,1,70.69,0,13.46,13.46,0,1,1-26.92,0,8.43,8.43,0,1,0-16.85,0,13.46,13.46,0,1,1-26.92,0Z"/><path class="cls-2" d="M446.46,404.58a13.46,13.46,0,1,1,26.91,0,49.91,49.91,0,0,0,99.82,0,13.46,13.46,0,1,1,26.91,0,76.82,76.82,0,0,1-153.64,0Z"/><path class="cls-2" d="M379.08,573.18a13.46,13.46,0,1,1,14.66-22.58c96.25,62.49,225.1,48.86,306.37-32.41,95.49-95.5,95.49-250.88,0-346.37s-250.87-95.49-346.37,0c-81.39,81.39-94.94,210.36-32.23,306.65A13.46,13.46,0,0,1,299,493.16a271.92,271.92,0,0,1,35.75-340.37c106-106,278.44-106,384.43,0s106,278.43,0,384.42A272.31,272.31,0,0,1,554,615.49q-13.41,1.34-26.84,1.33A272.52,272.52,0,0,1,379.08,573.18Z"/><path class="cls-2" d="M236.26,32.54V14a13.46,13.46,0,1,1,26.91,0V32.54a13.46,13.46,0,1,1-26.91,0Z"/><path class="cls-2" d="M236.26,121.61V103a13.46,13.46,0,1,1,26.91,0v18.58a13.46,13.46,0,1,1-26.91,0Z"/><path class="cls-2" d="M182.43,67.79a13.45,13.45,0,0,1,13.46-13.46h18.58a13.46,13.46,0,1,1,0,26.91H195.89A13.45,13.45,0,0,1,182.43,67.79Z"/><path class="cls-2" d="M271.5,67.79A13.45,13.45,0,0,1,285,54.33h18.59a13.46,13.46,0,1,1,0,26.91H285A13.45,13.45,0,0,1,271.5,67.79Z"/><path class="cls-2" d="M27.67,420,6.77,399.1A21.4,21.4,0,0,1,37,368.84l20.9,20.9A21.4,21.4,0,0,1,27.67,420Z"/><path class="cls-2" d="M127.83,520.16l-20.91-20.9A21.4,21.4,0,0,1,137.19,469l20.9,20.9a21.4,21.4,0,1,1-30.26,30.26Z"/><path class="cls-2" d="M6.77,520.16a21.39,21.39,0,0,1,0-30.26L27.67,469a21.4,21.4,0,0,1,30.26,30.26L37,520.16A21.39,21.39,0,0,1,6.77,520.16Z"/><path class="cls-2" d="M106.92,420a21.41,21.41,0,0,1,0-30.26l20.91-20.9a21.4,21.4,0,0,1,30.26,30.26L137.19,420A21.4,21.4,0,0,1,106.92,420Z"/></g></g></g></svg>