<svg xmlns="http://www.w3.org/2000/svg" viewBox="0 0 558.66 558.71"><defs><style>.cls-1{fill:none;stroke:#fff;stroke-miterlimit:10;stroke-width:0.75px;}</style></defs><title>до 3% КЭШБЭК (12)</title><g id="Слой_2" data-name="Слой 2"><g id="Слой_1-2" data-name="Слой 1"><g id="до_3_КЭШБЭК" data-name="до 3% КЭШБЭК"><g id="монетка"><path class="cls-1" d="M3.41,306.11a283.22,283.22,0,0,0,17.91,64.4,9.43,9.43,0,0,0,.47,1.09,305.08,305.08,0,0,0,66.38,98.89c6.8,6.79,13.83,13.15,21,19.17h0l0,0a304.76,304.76,0,0,0,40.31,28.43,9.52,9.52,0,0,0,2.6,1.49,296.5,296.5,0,0,0,44.56,21.06,10.51,10.51,0,0,0,1.17.46,279.44,279.44,0,0,0,66.74,15.69,11.61,11.61,0,0,0,1.26.24c.13,0,.25-.06.37-.07a261.45,261.45,0,0,0,26.16,1.33,248.85,248.85,0,0,0,42.91-3.76l.11,0c.19,0,.38-.11.58-.12.82-.14,1.63-.32,2.45-.47.19-.07.39-.06.58-.13,42.89-8.25,82.72-28,114.59-59.92a213.21,213.21,0,0,0,19-21.88,213.22,213.22,0,0,0,21.25-18.35c94.3-94.3,83.77-258.27-23.46-365.5S199.23-29.55,104.93,64.75a212.18,212.18,0,0,0-18.8,21.61A212.54,212.54,0,0,0,64.69,105C28.47,141.2,7.77,187.71,2,237.32a8.38,8.38,0,0,0-.23,2.11,259.48,259.48,0,0,0,1.35,64.92A9,9,0,0,0,3.41,306.11Zm19.51,1.58,24-24.05c.71,3.2,1.43,6.39,2.25,9.58.4,1.56.86,3.1,1.29,4.65Q52.21,304,54.16,310c.5,1.52,1,3,1.49,4.54,1.19,3.44,2.46,6.88,3.78,10.29L34,350.25A261.83,261.83,0,0,1,22.92,307.69ZM41.6,369.51l25.84-25.84c.47,1,1,1.95,1.42,2.93s1.08,2.26,1.64,3.39c2.64,5.28,5.41,10.53,8.39,15.71.23.39.48.78.71,1.18.59,1,1.21,2,1.82,3L55.13,396.21A277.59,277.59,0,0,1,41.6,369.51Zm23.81,43.25L91.86,386.3c3,4.35,6.07,8.63,9.31,12.86.19.25.39.48.57.72,2.42,3.14,4.89,6.26,7.45,9.34L82.53,435.88C76.36,428.38,70.68,420.65,65.41,412.76ZM19.91,283.88a236.3,236.3,0,0,1,.48-40.72L40.55,223c0,1.1.06,2.21.06,3.31,0,2.62,0,5.23.13,7.86s.15,5.19.31,7.8q.42,6.79,1.19,13.62c.21,1.76.45,3.52.68,5.28ZM51.6,153.16q-1.58,5-2.93,10.07c-.52,2-1.06,3.88-1.54,5.84q-1.56,6.57-2.76,13.26c-.43,2.45-.78,4.91-1.14,7.38-.22,1.48-.48,3-.67,4.45L26.34,210.38a202.56,202.56,0,0,1,26.24-60.54C52.22,150.93,52,152.06,51.6,153.16ZM480.48,440.3a196.78,196.78,0,0,1-16.66,14.85l-3.26,2.47c-.25.19-.51.37-.75.56a200.21,200.21,0,0,1-17.18,11.58l-.33.19a197.53,197.53,0,0,1-17.95,9.52l-.66.29q-8.9,4.11-18.13,7.34l-1.16.4c-5.55,1.91-11.21,3.5-16.91,4.94-1.19.3-2.35.64-3.54.91-5.32,1.25-10.73,2.22-16.15,3.07-1.73.27-3.45.56-5.18.79-5.18.68-10.4,1.14-15.64,1.47-2,.12-4,.23-5.93.3q-7.8.27-15.66,0c-1.95-.06-3.92-.16-5.88-.27-5.39-.29-10.77-.73-16.17-1.38-1.68-.21-3.37-.48-5-.71-5.71-.82-11.44-1.77-17.15-3-1.13-.25-2.26-.54-3.39-.8-5.85-1.33-11.69-2.84-17.51-4.58-.57-.18-1.15-.31-1.72-.49-6.37-2-12.68-4.22-19-6.68-.77-.3-1.55-.57-2.32-.88C231.07,477.76,225,475,218.91,472c-.83-.4-1.66-.79-2.49-1.21q-9-4.53-17.78-9.76c-.82-.48-1.63-1-2.44-1.47-5.84-3.57-11.61-7.35-17.26-11.38-.73-.51-1.45-1.05-2.17-1.59-5.71-4.15-11.33-8.51-16.82-13.15-.51-.43-1-.88-1.5-1.32-5.69-4.87-11.26-10-16.65-15.35s-10.43-10.91-15.29-16.57c-.46-.55-1-1.07-1.4-1.61-4.6-5.44-8.94-11-13.07-16.71-.56-.77-1.13-1.53-1.68-2.29q-6-8.42-11.28-17.11c-.53-.88-1.06-1.75-1.58-2.63q-5.16-8.68-9.64-17.57c-.46-.92-.9-1.85-1.36-2.78q-4.36-8.91-8.06-18c-.37-.9-.69-1.81-1-2.72C75,312.74,72.86,306.64,71,300.5c-.26-.84-.48-1.68-.73-2.52-1.67-5.56-3.1-11.13-4.38-16.73-.3-1.3-.65-2.6-.92-3.91-1.19-5.55-2.11-11.12-2.9-16.7-.26-1.84-.55-3.68-.77-5.52-.64-5.26-1.06-10.53-1.36-15.77-.11-2.1-.22-4.18-.28-6.28q-.24-7.66,0-15.29.12-3.17.33-6.32c.31-5.13.77-10.23,1.43-15.29.24-1.86.55-3.69.83-5.53.84-5.32,1.79-10.62,3-15.84.3-1.3.67-2.57,1-3.86,1.4-5.55,3-11.05,4.81-16.46.18-.53.36-1,.55-1.58q3.18-9.06,7.21-17.81c.13-.28.24-.57.37-.85a200.87,200.87,0,0,1,9.48-17.86l.23-.4a193.49,193.49,0,0,1,11.57-17.14c.19-.25.37-.51.56-.75l2.46-3.27a196.78,196.78,0,0,1,14.85-16.66c39.51-39.5,92.46-58.88,147.83-58.88,66.45,0,136.4,27.88,190.86,82.34C556.86,201.47,567.39,353.4,480.48,440.3ZM130.27,482l26.64-26.64.12.09c1.19.93,2.35,1.88,3.55,2.78,4.91,3.72,9.88,7.31,14.95,10.69.38.26.76.48,1.14.73,1.25.83,2.52,1.6,3.78,2.41l-26.52,26.52A286.57,286.57,0,0,1,130.27,482ZM171,508.35l26.21-26.21c3.5,1.94,7,3.77,10.58,5.55,1,.52,2.06,1.07,3.1,1.59q6.61,3.23,13.33,6.09L198.59,521A279.5,279.5,0,0,1,171,508.35ZM218.44,528l25.17-25.16c1.6.55,3.21,1.08,4.81,1.6q6,1.95,12.05,3.62c1.52.42,3,.9,4.56,1.3,5.05,1.31,10.1,2.44,15.17,3.46,2,.4,4,.74,6,1.1l-23.49,23.49A259.23,259.23,0,0,1,218.44,528ZM408.8,506.07a199.11,199.11,0,0,1-41.15,20.26l13-13c5.34-1.07,10.62-2.29,15.86-3.71,1.81-.49,3.6-1,5.41-1.58C404.17,507.39,406.51,506.83,408.8,506.07ZM287.74,539.18,309.88,517l3.11.23c4.44.34,8.85.55,13.27.67,2.14.06,4.29.17,6.43.17.33,0,.66-.05,1-.05,5.37,0,10.7-.24,16-.61L331.15,536A231,231,0,0,1,287.74,539.18Zm-186.17-82.1c-2.27-2.26-4.28-4.66-6.45-7l26.71-26.72c2.18,2.29,4.32,4.61,6.57,6.85,4.45,4.44,9,8.66,13.64,12.77l.21.21L115.51,470C110.79,465.81,106.09,461.6,101.57,457.08Z"/><path class="cls-1" d="M488,535.43a9.49,9.49,0,0,0,9.48,9.48,47.47,47.47,0,0,0,47.42-47.42,9.48,9.48,0,1,0-19,0,28.49,28.49,0,0,1-28.46,28.45A9.49,9.49,0,0,0,488,535.43Z"/><path class="cls-1" d="M70.64,13.78a9.49,9.49,0,0,0-9.49-9.49C35,4.29,13.73,29.82,13.73,61.2a9.49,9.49,0,1,0,19,0c0-20.92,12.77-37.94,28.45-37.94A9.49,9.49,0,0,0,70.64,13.78Z"/><path class="cls-1" d="M118.06,535.43a9.49,9.49,0,0,0,0-19A85.47,85.47,0,0,1,32.7,431.1a9.49,9.49,0,1,0-19,0A104.45,104.45,0,0,0,118.06,535.43Z"/><path class="cls-1" d="M4.25,516.46c0,20.92,21.27,37.94,47.42,37.94a9.49,9.49,0,0,0,0-19c-15.42,0-28.46-8.69-28.46-19a9.48,9.48,0,1,0-19,0Z"/><path class="cls-1" d="M519.8,275.08c-4.61-58.68-31.67-115.52-76.2-160C394.74,66.17,330.08,38.14,266.19,38.14c-52.25,0-100,19-134.44,53.41C93.09,130.2,74.36,184.12,79,243.36c4.62,58.69,31.68,115.52,76.2,160a273.77,273.77,0,0,0,38,31.69l-.31.25,11.66,7.21.14.08c4.46,2.75,9,5.33,13.57,7.8,1.29.69,2.59,1.35,3.89,2q5.12,2.63,10.28,5c1.42.67,2.85,1.35,4.28,2,4.42,1.95,8.88,3.79,13.37,5.48,1.46.55,2.94,1,4.41,1.54q4.86,1.72,9.76,3.25,2.86.87,5.71,1.68c3.26.92,6.53,1.74,9.81,2.52,1.53.37,3,.78,4.58,1.11,4.58,1,9.19,1.82,13.8,2.53,1.56.25,3.12.43,4.69.64,3.5.47,7,.86,10.54,1.16,1.52.14,3,.27,4.56.37,4.88.33,9.76.54,14.64.54,52.26,0,100-19,134.44-53.41C505.73,388.24,524.45,334.32,519.8,275.08ZM472.69,390s-17.13,21.54-19,23.44c-30.86,30.86-73.85,47.85-121,47.84-4.13,0-8.26-.17-12.4-.42-1.4-.09-2.8-.23-4.21-.34-2.72-.22-5.44-.48-8.16-.81-1.68-.21-3.36-.44-5-.68-2.47-.35-4.93-.77-7.39-1.22-1.74-.32-3.47-.62-5.21-1-2.61-.54-5.21-1.17-7.81-1.8-1.49-.36-3-.69-4.48-1.09q-5.85-1.56-11.65-3.46c-1.38-.44-2.76-1-4.14-1.45-2.71-.95-5.42-1.9-8.1-3-1.47-.57-2.93-1.17-4.39-1.78-2.7-1.12-5.4-2.29-8.08-3.51-1.26-.58-2.53-1.16-3.8-1.76q-4.91-2.35-9.75-4.95l-1.45-.75-17.46-10.48A254,254,0,0,1,168.64,390c-41.32-41.32-66.44-93.92-70.7-148.11C93.72,188.27,110.49,139.66,145.17,105,176,74.13,219,57.13,266.2,57.13c58.9,0,118.67,26,164,71.33,41.32,41.32,66.44,93.92,70.69,148.11C504.23,319.07,494.19,358.3,472.69,390Z"/></g></g></g></g></svg>