<svg xmlns="http://www.w3.org/2000/svg" viewBox="0 0 1252.63 435.33"><defs><style>.cls-1{fill:none;stroke:#fff;stroke-miterlimit:10;stroke-width:3px;}.cls-2{opacity:0.45;}.cls-3{opacity:0.3;}</style></defs><title>до 3% КЭШБЭК (13)</title><g id="Слой_2" data-name="Слой 2"><g id="Слой_1-2" data-name="Слой 1"><g id="до_3_КЭШБЭК" data-name="до 3% КЭШБЭК"><g id="Плюсики"><path class="cls-1" d="M102.46,149.89,63.53,138.32A29.4,29.4,0,0,1,80.29,82l38.92,11.57a29.4,29.4,0,0,1-16.75,56.37Z"/><path class="cls-1" d="M289,205.33l-38.93-11.57a29.4,29.4,0,1,1,16.75-56.36L305.75,149A29.4,29.4,0,1,1,289,205.33Z"/><path class="cls-1" d="M142.76,284.56A29.4,29.4,0,0,1,123,248l11.57-38.93a29.4,29.4,0,0,1,56.37,16.75l-11.57,38.93A29.4,29.4,0,0,1,142.76,284.56Z"/><path class="cls-1" d="M198.2,98a29.4,29.4,0,0,1-19.8-36.56L190,22.53a29.4,29.4,0,1,1,56.36,16.76L234.76,78.21A29.39,29.39,0,0,1,198.2,98Z"/><g class="cls-2"><path class="cls-1" d="M1060.59,325.54l-35.4,7.26a26.16,26.16,0,1,1-10.51-51.25l35.4-7.26a26.16,26.16,0,0,1,10.51,51.25Z"/><path class="cls-1" d="M1230.22,290.76l-35.4,7.26a26.16,26.16,0,0,1-10.51-51.26l35.4-7.26a26.16,26.16,0,1,1,10.51,51.26Z"/><path class="cls-1" d="M1148.73,414.3a26.16,26.16,0,0,1-30.88-20.38l-7.26-35.4A26.16,26.16,0,0,1,1161.84,348l7.26,35.4A26.16,26.16,0,0,1,1148.73,414.3Z"/><path class="cls-1" d="M1113.94,244.66a26.15,26.15,0,0,1-30.88-20.37l-7.26-35.4a26.16,26.16,0,0,1,51.26-10.51l7.26,35.4A26.16,26.16,0,0,1,1113.94,244.66Z"/></g></g><g id="Плюсики-2" data-name="Плюсики" class="cls-3"><path class="cls-1" d="M61.46,168.89,22.53,157.32A29.4,29.4,0,0,1,39.29,101l38.92,11.57a29.4,29.4,0,0,1-16.75,56.37Z"/><path class="cls-1" d="M248,224.33l-38.93-11.57a29.4,29.4,0,1,1,16.75-56.36L264.75,168A29.4,29.4,0,1,1,248,224.33Z"/><path class="cls-1" d="M101.76,303.56A29.4,29.4,0,0,1,82,267l11.57-38.93a29.4,29.4,0,0,1,56.37,16.75l-11.57,38.93A29.4,29.4,0,0,1,101.76,303.56Z"/><path class="cls-1" d="M157.2,117a29.4,29.4,0,0,1-19.8-36.56L149,41.53a29.4,29.4,0,1,1,56.36,16.76L193.76,97.21A29.39,29.39,0,0,1,157.2,117Z"/><g class="cls-2"><path class="cls-1" d="M1019.59,344.54l-35.4,7.26a26.16,26.16,0,1,1-10.51-51.25l35.4-7.26a26.16,26.16,0,0,1,10.51,51.25Z"/><path class="cls-1" d="M1189.22,309.76l-35.4,7.26a26.16,26.16,0,0,1-10.51-51.26l35.4-7.26a26.16,26.16,0,1,1,10.51,51.26Z"/><path class="cls-1" d="M1107.73,433.3a26.16,26.16,0,0,1-30.88-20.38l-7.26-35.4A26.16,26.16,0,1,1,1120.84,367l7.26,35.4A26.16,26.16,0,0,1,1107.73,433.3Z"/><path class="cls-1" d="M1072.94,263.66a26.15,26.15,0,0,1-30.88-20.37l-7.26-35.4a26.16,26.16,0,0,1,51.26-10.51l7.26,35.4A26.16,26.16,0,0,1,1072.94,263.66Z"/></g></g></g></g></g></svg>