<svg xmlns="http://www.w3.org/2000/svg" xmlns:xlink="http://www.w3.org/1999/xlink" viewBox="0 0 384.66 380.62"><defs><style>.cls-1{fill:#f2be19;}.cls-2{clip-path:url(#clip-path);}.cls-3{fill:#daa727;}.cls-4{fill:#ffd84a;}</style><clipPath id="clip-path"><path class="cls-1" d="M95.49,289.4c-70-70-81.76-173.62-30.75-241.19A149.49,149.49,0,0,0,49,61.84C-17.22,128.05-9.55,243.08,66.12,318.76s193.92,81,260.13,14.81a150.5,150.5,0,0,0,13.62-15.75c-67.56,51-174.39,41.57-244.38-28.42"/></clipPath></defs><title>до 3% КЭШБЭК (10)</title><g id="Слой_2" data-name="Слой 2"><g id="Слой_1-2" data-name="Слой 1"><g id="до_3_КЭШБЭК" data-name="до 3% КЭШБЭК"><g id="монетка"><path class="cls-1" d="M95.49,289.4c-70-70-81.76-173.62-30.75-241.19A149.49,149.49,0,0,0,49,61.84C-17.22,128.05-9.55,243.08,66.12,318.76s193.92,81,260.13,14.81a150.5,150.5,0,0,0,13.62-15.75c-67.56,51-174.39,41.57-244.38-28.42"/><g class="cls-2"><path class="cls-3" d="M29.36,136a168.68,168.68,0,0,1,2.83-22.4L2.56,143.19A171.11,171.11,0,0,0,0,165.32Z"/><path class="cls-3" d="M86.56,284.3c-3.18-3.39-6.32-6.8-9.25-10.32l-29.4,29.4c2.92,3.53,6,7,9.19,10.38L86.56,284.3"/><path class="cls-3" d="M112.17,307.63c-3.64-2.83-7.22-5.75-10.73-8.84L72,328.21c3.49,3.09,7,6.07,10.68,8.89l29.47-29.47"/><path class="cls-3" d="M64.76,257.16c-2.67-3.92-5.26-7.88-7.64-11.93L27.73,274.61q3.57,6.08,7.58,12l29.45-29.45"/><path class="cls-3" d="M47.15,225.83c-2.07-4.58-4-9.18-5.73-13.84L12,241.43q2.58,7,5.69,13.88l29.48-29.48"/><path class="cls-3" d="M141.76,327c-4.17-2.26-8.29-4.65-12.36-7.21L99.92,349.24c4.07,2.57,8.21,4.94,12.39,7.19L141.76,327"/><path class="cls-3" d="M175.93,341.75c-4.81-1.57-9.59-3.3-14.32-5.26l-29.44,29.44c4.73,2,9.51,3.69,14.31,5.27l29.45-29.45"/><path class="cls-3" d="M225.26,351.15c-5.89-.33-11.79-1-17.71-1.87l-29.49,29.49q8.88,1.35,17.72,1.85l29.48-29.47"/><path class="cls-3" d="M279.71,345.63a167.62,167.62,0,0,1-24.17,4.6L226,379.77a165.86,165.86,0,0,0,24.16-4.59l29.55-29.55"/><path class="cls-3" d="M32.77,181.49q-1.67-8.52-2.55-17L.76,193.92q.9,8.51,2.58,17l29.43-29.43"/></g><path class="cls-4" d="M65.56,45.05C131.78-21.17,246.8-13.5,322.48,62.18s83.35,190.71,17.13,256.93S158.37,377.66,82.69,302-.66,111.27,65.56,45.05"/><path class="cls-1" d="M226.83,336.48c-44.81,0-90.21-19.72-124.56-54.08C37.5,217.65,29.82,120,85.14,64.63,109,40.81,142.06,27.69,178.35,27.69c44.8,0,90.2,19.7,124.56,54.07,64.77,64.76,72.45,162.46,17.13,217.77-23.83,23.83-56.92,37-93.21,37"/></g></g></g></g></svg>