<svg xmlns="http://www.w3.org/2000/svg" viewBox="0 0 394.49 401.41"><defs><style>.cls-1{fill:#fff;}</style></defs><title>до 3% КЭШБЭК (11)</title><g id="Слой_2" data-name="Слой 2"><g id="Слой_1-2" data-name="Слой 1"><g id="до_3_КЭШБЭК" data-name="до 3% КЭШБЭК"><g id="монетка"><path class="cls-1" d="M359.89,394.49a6.92,6.92,0,1,1,0-13.84,20.79,20.79,0,0,0,20.76-20.76,6.92,6.92,0,1,1,13.84,0,34.64,34.64,0,0,1-34.6,34.6"/><path class="cls-1" d="M13.84,48.45a6.92,6.92,0,0,1-6.92-6.92C6.92,18.62,22.44,0,41.53,0a6.92,6.92,0,1,1,0,13.84c-11.45,0-20.77,12.42-20.77,27.69a6.92,6.92,0,0,1-6.92,6.92"/><path class="cls-1" d="M83.05,387.57A76.23,76.23,0,0,1,6.92,311.44a6.92,6.92,0,0,1,13.84,0,62.37,62.37,0,0,0,62.29,62.29,6.92,6.92,0,1,1,0,13.84"/><path class="cls-1" d="M34.6,401.41C15.52,401.41,0,389,0,373.73a6.92,6.92,0,0,1,13.84,0c0,7.5,9.51,13.84,20.76,13.84a6.92,6.92,0,1,1,0,13.84"/></g></g></g></g></svg>